{
  "accessors": [
    {
      "bufferView": 0,
      "componentType": 5121,
      "count": 6,
      "type": "SCALAR",
      "max": [
        3.0
      ],
      "min": [
        0.0
      ]
    },
    {
      "bufferView": 1,
      "componentType": 5126,
      "count": 4,
      "type": "VEC3",
      "max": [
        201.145,
        2.84,
        -56.670002
      ],
      "min": [
        200.935,
        -0.420000017,
        -56.670002
      ]
    },
    {
      "bufferView": 2,
      "componentType": 5121,
      "count": 6,
      "type": "SCALAR",
      "max": [
        3.0
      ],
      "min": [
        0.0
      ]
    },
    {
      "bufferView": 3,
      "componentType": 5126,
      "count": 4,
      "type": "VEC3",
      "max": [
        201.145,
        2.84,
        -56.57
      ],
      "min": [
        200.935,
        -0.420000017,
        -56.57
      ]
    },
    {
      "bufferView": 4,
      "componentType": 5121,
      "count": 24,
      "type": "SCALAR",
      "max": [
        7.0
      ],
      "min": [
        0.0
      ]
    },
    {
      "bufferView": 5,
      "componentType": 5126,
      "count": 8,
      "type": "VEC3",
      "max": [
        201.145,
        2.84,
        -56.57
      ],
      "min": [
        200.935,
        -0.420000017,
        -56.670002
      ]
    }
  ],
  "asset": {
    "copyright": "2019 (c) Smart2IT B.V.",
    "generator": "Smart2IT Revit glTF Exporter v0.5",
    "version": "2.0"
  },
  "buffers": [
    {
      "uri": "00_013_003.bin",
      "byteLength": 232
    }
  ],
  "bufferViews": [
    {
      "buffer": 0,
      "byteLength": 8,
      "target": 34963
    },
    {
      "buffer": 0,
      "byteOffset": 8,
      "byteLength": 48,
      "target": 34962
    },
    {
      "buffer": 0,
      "byteOffset": 56,
      "byteLength": 8,
      "target": 34963
    },
    {
      "buffer": 0,
      "byteOffset": 64,
      "byteLength": 48,
      "target": 34962
    },
    {
      "buffer": 0,
      "byteOffset": 112,
      "byteLength": 24,
      "target": 34963
    },
    {
      "buffer": 0,
      "byteOffset": 136,
      "byteLength": 96,
      "target": 34962
    }
  ],
  "materials": [
    {
      "name": "i2_naaldhout_red cedar_rabat",
      "pbrMetallicRoughness": {
        "baseColorFactor": [
          0.9019608,
          0.8352941,
          0.6745098,
          1.0
        ],
        "metallicFactor": 0.0
      }
    },
    {
      "name": "i4_multiplex",
      "pbrMetallicRoughness": {
        "baseColorFactor": [
          0.9019608,
          0.8352941,
          0.6745098,
          1.0
        ],
        "metallicFactor": 0.0
      }
    },
    {
      "name": "Walls material#7F7F7FFF",
      "pbrMetallicRoughness": {
        "baseColorFactor": [
          0.498039216,
          0.498039216,
          0.498039216,
          1.0
        ],
        "metallicFactor": 0.0
      }
    }
  ],
  "meshes": [
    {
      "primitives": [
        {
          "attributes": {
            "POSITION": 1
          },
          "indices": 0,
          "material": 0
        },
        {
          "attributes": {
            "POSITION": 3
          },
          "indices": 2,
          "material": 1
        },
        {
          "attributes": {
            "POSITION": 5
          },
          "indices": 4,
          "material": 2
        }
      ]
    }
  ],
  "nodes": [
    {
      "matrix": [
        1.0,
        0.0,
        0.0,
        0.0,
        0.0,
        1.0,
        0.0,
        0.0,
        0.0,
        0.0,
        1.0,
        0.0,
        -195.0,
        0.0,
        45.0,
        1.0
      ],
      "mesh": 0,
      "name": "[6735911]21_HSB-element"
    }
  ],
  "scene": 0,
  "scenes": [
    {
      "nodes": [
        0
      ],
      "name": "Cell"
    }
  ]
}