{
  "accessors": [
    {
      "bufferView": 0,
      "componentType": 5121,
      "count": 36,
      "type": "SCALAR",
      "max": [
        7.0
      ],
      "min": [
        0.0
      ]
    },
    {
      "bufferView": 1,
      "componentType": 5126,
      "count": 8,
      "type": "VEC3",
      "max": [
        165.035,
        2.77000022,
        -204.0
      ],
      "min": [
        164.904,
        -0.36,
        -206.531
      ]
    },
    {
      "bufferView": 2,
      "componentType": 5121,
      "count": 36,
      "type": "SCALAR",
      "max": [
        7.0
      ],
      "min": [
        0.0
      ]
    },
    {
      "bufferView": 3,
      "componentType": 5126,
      "count": 8,
      "type": "VEC3",
      "max": [
        164.865,
        2.84,
        -204.0
      ],
      "min": [
        164.765,
        0.651,
        -206.569992
      ]
    },
    {
      "bufferView": 4,
      "componentType": 5121,
      "count": 48,
      "type": "SCALAR",
      "max": [
        9.0
      ],
      "min": [
        0.0
      ]
    },
    {
      "bufferView": 5,
      "componentType": 5126,
      "count": 10,
      "type": "VEC3",
      "max": [
        165.0,
        2.84,
        -206.569992
      ],
      "min": [
        164.765,
        0.651,
        -206.670013
      ]
    },
    {
      "bufferView": 6,
      "componentType": 5121,
      "count": 36,
      "type": "SCALAR",
      "max": [
        7.0
      ],
      "min": [
        0.0
      ]
    },
    {
      "bufferView": 7,
      "componentType": 5126,
      "count": 8,
      "type": "VEC3",
      "max": [
        164.865,
        0.651,
        -204.0
      ],
      "min": [
        164.765,
        -0.420000017,
        -206.569992
      ]
    },
    {
      "bufferView": 8,
      "componentType": 5121,
      "count": 48,
      "type": "SCALAR",
      "max": [
        9.0
      ],
      "min": [
        0.0
      ]
    },
    {
      "bufferView": 9,
      "componentType": 5126,
      "count": 10,
      "type": "VEC3",
      "max": [
        165.0,
        0.651,
        -206.569992
      ],
      "min": [
        164.765,
        -0.420000017,
        -206.670013
      ]
    }
  ],
  "asset": {
    "copyright": "2019 (c) Smart2IT B.V.",
    "generator": "Smart2IT Revit glTF Exporter v0.5",
    "version": "2.0"
  },
  "buffers": [
    {
      "uri": "00_011_013.bin",
      "byteLength": 732
    }
  ],
  "bufferViews": [
    {
      "buffer": 0,
      "byteLength": 36,
      "target": 34963
    },
    {
      "buffer": 0,
      "byteOffset": 36,
      "byteLength": 96,
      "target": 34962
    },
    {
      "buffer": 0,
      "byteOffset": 132,
      "byteLength": 36,
      "target": 34963
    },
    {
      "buffer": 0,
      "byteOffset": 168,
      "byteLength": 96,
      "target": 34962
    },
    {
      "buffer": 0,
      "byteOffset": 264,
      "byteLength": 48,
      "target": 34963
    },
    {
      "buffer": 0,
      "byteOffset": 312,
      "byteLength": 120,
      "target": 34962
    },
    {
      "buffer": 0,
      "byteOffset": 432,
      "byteLength": 36,
      "target": 34963
    },
    {
      "buffer": 0,
      "byteOffset": 468,
      "byteLength": 96,
      "target": 34962
    },
    {
      "buffer": 0,
      "byteOffset": 564,
      "byteLength": 48,
      "target": 34963
    },
    {
      "buffer": 0,
      "byteOffset": 612,
      "byteLength": 120,
      "target": 34962
    }
  ],
  "materials": [
    {
      "name": "m1_isolatie",
      "pbrMetallicRoughness": {
        "baseColorFactor": [
          0.768627465,
          0.9882353,
          0.619607866,
          1.0
        ],
        "metallicFactor": 0.0
      }
    },
    {
      "name": "g2_baksteen_Sonsbeek",
      "pbrMetallicRoughness": {
        "baseColorFactor": [
          0.521568656,
          0.435294122,
          0.372549027,
          1.0
        ],
        "metallicFactor": 0.0
      }
    },
    {
      "name": "g2_baksteen_Hadsund",
      "pbrMetallicRoughness": {
        "baseColorFactor": [
          0.298039228,
          0.254901975,
          0.239215687,
          1.0
        ],
        "metallicFactor": 0.0
      }
    }
  ],
  "meshes": [
    {
      "primitives": [
        {
          "attributes": {
            "POSITION": 1
          },
          "indices": 0,
          "material": 0
        }
      ]
    },
    {
      "primitives": [
        {
          "attributes": {
            "POSITION": 3
          },
          "indices": 2,
          "material": 1
        }
      ]
    },
    {
      "primitives": [
        {
          "attributes": {
            "POSITION": 5
          },
          "indices": 4,
          "material": 1
        }
      ]
    },
    {
      "primitives": [
        {
          "attributes": {
            "POSITION": 7
          },
          "indices": 6,
          "material": 2
        }
      ]
    },
    {
      "primitives": [
        {
          "attributes": {
            "POSITION": 9
          },
          "indices": 8,
          "material": 2
        }
      ]
    }
  ],
  "nodes": [
    {
      "matrix": [
        1.0,
        0.0,
        0.0,
        0.0,
        0.0,
        1.0,
        0.0,
        0.0,
        0.0,
        0.0,
        1.0,
        0.0,
        -165.0,
        0.0,
        195.0,
        1.0
      ],
      "mesh": 0,
      "name": "[8734844]21_isolatie 131mm"
    },
    {
      "matrix": [
        1.0,
        0.0,
        0.0,
        0.0,
        0.0,
        1.0,
        0.0,
        0.0,
        0.0,
        0.0,
        1.0,
        0.0,
        -165.0,
        0.0,
        195.0,
        1.0
      ],
      "mesh": 1,
      "name": "[8734859]21_Metselwerk Sonsbeek 100 mm, Aberson 48N13"
    },
    {
      "matrix": [
        1.0,
        0.0,
        0.0,
        0.0,
        0.0,
        1.0,
        0.0,
        0.0,
        0.0,
        0.0,
        1.0,
        0.0,
        -165.0,
        0.0,
        195.0,
        1.0
      ],
      "mesh": 2,
      "name": "[8734860]21_Metselwerk Sonsbeek 100 mm, Aberson 48N13"
    },
    {
      "matrix": [
        1.0,
        0.0,
        0.0,
        0.0,
        0.0,
        1.0,
        0.0,
        0.0,
        0.0,
        0.0,
        1.0,
        0.0,
        -165.0,
        0.0,
        195.0,
        1.0
      ],
      "mesh": 3,
      "name": "[8734874]21_Metselwerk Hadsund 100mm, Aberson 48N45"
    },
    {
      "matrix": [
        1.0,
        0.0,
        0.0,
        0.0,
        0.0,
        1.0,
        0.0,
        0.0,
        0.0,
        0.0,
        1.0,
        0.0,
        -165.0,
        0.0,
        195.0,
        1.0
      ],
      "mesh": 4,
      "name": "[8734875]21_Metselwerk Hadsund 100mm, Aberson 48N45"
    }
  ],
  "scene": 0,
  "scenes": [
    {
      "nodes": [
        0,
        1,
        2,
        3,
        4
      ],
      "name": "Cell"
    }
  ]
}